<mxfile host="drawio-plugin" modified="2022-10-30T16:01:52.258Z" agent="5.0 (Windows NT 6.2; Win64; x64) AppleWebKit/537.36 (KHTML, like Gecko) Chrome/89.0.4389.114 Safari/537.36" etag="NSeEhhroe_69D2x3pawN" version="15.5.4" type="embed"><diagram id="9Hrbb2R-tDA1yJ9SKTgA" name="Seite-1"><mxGraphModel dx="1690" dy="940" grid="1" gridSize="10" guides="1" tooltips="1" connect="1" arrows="1" fold="1" page="1" pageScale="1" pageWidth="1569" pageHeight="1654" math="0" shadow="0"><root><mxCell id="0"/><mxCell id="1" parent="0"/><mxCell id="8wCynKdP6kSH53Gw-5Ry-2" value="Account&lt;br&gt;&lt;br&gt;&lt;br&gt;&lt;br&gt;&lt;br&gt;&lt;br&gt;&lt;br&gt;&lt;br&gt;&lt;br&gt;&lt;br&gt;&lt;br&gt;&lt;br&gt;&lt;br&gt;&lt;br&gt;&lt;br&gt;&lt;br&gt;&lt;br&gt;&lt;br&gt;" style="shape=folder;fontStyle=1;spacingTop=10;tabWidth=40;tabHeight=14;tabPosition=left;html=1;" parent="1" vertex="1"><mxGeometry x="170" y="260" width="360" height="300" as="geometry"/></mxCell><mxCell id="8wCynKdP6kSH53Gw-5Ry-3" value="Create" style="ellipse;whiteSpace=wrap;html=1;fillColor=#d5e8d4;strokeColor=#82b366;" parent="1" vertex="1"><mxGeometry x="190" y="340" width="140" height="70" as="geometry"/></mxCell><mxCell id="8wCynKdP6kSH53Gw-5Ry-4" value="Login" style="ellipse;whiteSpace=wrap;html=1;fillColor=#d5e8d4;strokeColor=#82b366;" parent="1" vertex="1"><mxGeometry x="190" y="430" width="140" height="70" as="geometry"/></mxCell><mxCell id="8wCynKdP6kSH53Gw-5Ry-5" value="Logout" style="ellipse;whiteSpace=wrap;html=1;fillColor=#d5e8d4;strokeColor=#82b366;" parent="1" vertex="1"><mxGeometry x="370" y="430" width="140" height="70" as="geometry"/></mxCell><mxCell id="8wCynKdP6kSH53Gw-5Ry-6" value="Delete" style="ellipse;whiteSpace=wrap;html=1;fillColor=#fff2cc;strokeColor=#d6b656;" parent="1" vertex="1"><mxGeometry x="370" y="340" width="140" height="70" as="geometry"/></mxCell><mxCell id="8wCynKdP6kSH53Gw-5Ry-7" value="Proof Handling&lt;br&gt;&lt;br&gt;&lt;br&gt;&lt;br&gt;&lt;br&gt;&lt;br&gt;&lt;br&gt;&lt;br&gt;&lt;br&gt;&lt;br&gt;&lt;br&gt;&lt;br&gt;&lt;br&gt;&lt;br&gt;&lt;br&gt;&lt;br&gt;&lt;br&gt;" style="shape=folder;fontStyle=1;spacingTop=10;tabWidth=40;tabHeight=14;tabPosition=left;html=1;" parent="1" vertex="1"><mxGeometry x="650" y="270" width="360" height="300" as="geometry"/></mxCell><mxCell id="8wCynKdP6kSH53Gw-5Ry-8" value="Shop&lt;br&gt;&lt;br&gt;&lt;br&gt;&lt;br&gt;&lt;br&gt;&lt;br&gt;&lt;br&gt;&lt;br&gt;&lt;br&gt;" style="shape=folder;fontStyle=1;spacingTop=10;tabWidth=40;tabHeight=14;tabPosition=left;html=1;" parent="1" vertex="1"><mxGeometry x="650" y="740" width="360" height="210" as="geometry"/></mxCell><mxCell id="8wCynKdP6kSH53Gw-5Ry-9" value="&lt;br&gt;&lt;br&gt;Social Networking&lt;br&gt;&lt;br&gt;&lt;br&gt;&lt;br&gt;&lt;br&gt;&lt;br&gt;&lt;br&gt;&lt;br&gt;&lt;br&gt;&lt;br&gt;&lt;br&gt;&lt;br&gt;&lt;br&gt;&lt;br&gt;&lt;br&gt;&lt;br&gt;" style="shape=folder;fontStyle=1;spacingTop=10;tabWidth=40;tabHeight=14;tabPosition=left;html=1;" parent="1" vertex="1"><mxGeometry x="170" y="730" width="360" height="300" as="geometry"/></mxCell><mxCell id="8wCynKdP6kSH53Gw-5Ry-10" value="Crud -U" style="ellipse;whiteSpace=wrap;html=1;fillColor=#d5e8d4;strokeColor=#82b366;" parent="1" vertex="1"><mxGeometry x="660" y="350" width="140" height="70" as="geometry"/></mxCell><mxCell id="8wCynKdP6kSH53Gw-5Ry-11" value="Report" style="ellipse;whiteSpace=wrap;html=1;" parent="1" vertex="1"><mxGeometry x="830" y="350" width="140" height="70" as="geometry"/></mxCell><mxCell id="8wCynKdP6kSH53Gw-5Ry-14" value="Redeem Goodies" style="ellipse;whiteSpace=wrap;html=1;fillColor=#fff2cc;strokeColor=#d6b656;" parent="1" vertex="1"><mxGeometry x="680" y="855" width="140" height="70" as="geometry"/></mxCell><mxCell id="8wCynKdP6kSH53Gw-5Ry-15" value="Add Friends" style="ellipse;whiteSpace=wrap;html=1;fillColor=#fff2cc;strokeColor=#d6b656;" parent="1" vertex="1"><mxGeometry x="190" y="830" width="140" height="70" as="geometry"/></mxCell><mxCell id="8wCynKdP6kSH53Gw-5Ry-16" value="Buy Goodies with points" style="ellipse;whiteSpace=wrap;html=1;fillColor=#fff2cc;strokeColor=#d6b656;" parent="1" vertex="1"><mxGeometry x="850" y="855" width="140" height="70" as="geometry"/></mxCell><mxCell id="8wCynKdP6kSH53Gw-5Ry-18" value="Manage friend requests" style="ellipse;whiteSpace=wrap;html=1;fillColor=#fff2cc;strokeColor=#d6b656;" parent="1" vertex="1"><mxGeometry x="280" y="925" width="140" height="80" as="geometry"/></mxCell><mxCell id="8wCynKdP6kSH53Gw-5Ry-19" value="Delete Friends" style="ellipse;whiteSpace=wrap;html=1;fillColor=#fff2cc;strokeColor=#d6b656;" parent="1" vertex="1"><mxGeometry x="370" y="832" width="140" height="70" as="geometry"/></mxCell><mxCell id="8wCynKdP6kSH53Gw-5Ry-20" value="logged in user" style="shape=umlActor;verticalLabelPosition=bottom;verticalAlign=top;html=1;" parent="1" vertex="1"><mxGeometry x="50" y="580" width="30" height="60" as="geometry"/></mxCell><mxCell id="8wCynKdP6kSH53Gw-5Ry-21" value="Moderation&lt;br&gt;&lt;br&gt;&lt;br&gt;&lt;br&gt;&lt;br&gt;&lt;br&gt;&lt;br&gt;&lt;br&gt;&lt;br&gt;&lt;br&gt;&lt;br&gt;&lt;br&gt;&lt;br&gt;&lt;br&gt;&lt;br&gt;&lt;br&gt;" style="shape=folder;fontStyle=1;spacingTop=10;tabWidth=40;tabHeight=14;tabPosition=left;html=1;" parent="1" vertex="1"><mxGeometry x="1070" y="450" width="360" height="300" as="geometry"/></mxCell><mxCell id="8wCynKdP6kSH53Gw-5Ry-22" value="Delete proof" style="ellipse;whiteSpace=wrap;html=1;" parent="1" vertex="1"><mxGeometry x="1250" y="530" width="140" height="70" as="geometry"/></mxCell><mxCell id="8wCynKdP6kSH53Gw-5Ry-23" value="Ban Account" style="ellipse;whiteSpace=wrap;html=1;" parent="1" vertex="1"><mxGeometry x="1090" y="530" width="140" height="70" as="geometry"/></mxCell><mxCell id="8wCynKdP6kSH53Gw-5Ry-24" value="" style="endArrow=none;html=1;rounded=0;exitX=1;exitY=0.5;exitDx=0;exitDy=0;" parent="1" source="8wCynKdP6kSH53Gw-5Ry-11" edge="1"><mxGeometry width="50" height="50" relative="1" as="geometry"><mxPoint x="650" y="680" as="sourcePoint"/><mxPoint x="1500" y="440" as="targetPoint"/></mxGeometry></mxCell><mxCell id="8wCynKdP6kSH53Gw-5Ry-25" value="" style="endArrow=none;html=1;rounded=0;entryX=0;entryY=0.5;entryDx=0;entryDy=0;" parent="1" target="8wCynKdP6kSH53Gw-5Ry-3" edge="1"><mxGeometry width="50" height="50" relative="1" as="geometry"><mxPoint x="90" y="375" as="sourcePoint"/><mxPoint x="194" y="389" as="targetPoint"/></mxGeometry></mxCell><mxCell id="8wCynKdP6kSH53Gw-5Ry-27" value="" style="endArrow=none;html=1;rounded=0;exitX=0;exitY=0;exitDx=0;exitDy=157;exitPerimeter=0;" parent="1" source="8wCynKdP6kSH53Gw-5Ry-9" edge="1" target="8wCynKdP6kSH53Gw-5Ry-20"><mxGeometry width="50" height="50" relative="1" as="geometry"><mxPoint x="40" y="820" as="sourcePoint"/><mxPoint x="80" y="680" as="targetPoint"/></mxGeometry></mxCell><mxCell id="8wCynKdP6kSH53Gw-5Ry-28" value="" style="endArrow=none;html=1;rounded=0;entryX=0;entryY=0;entryDx=200;entryDy=14;entryPerimeter=0;" parent="1" target="8wCynKdP6kSH53Gw-5Ry-8" edge="1"><mxGeometry width="50" height="50" relative="1" as="geometry"><mxPoint x="90" y="630" as="sourcePoint"/><mxPoint x="290" y="660" as="targetPoint"/></mxGeometry></mxCell><mxCell id="8wCynKdP6kSH53Gw-5Ry-30" value="Moderator" style="shape=umlActor;verticalLabelPosition=bottom;verticalAlign=top;html=1;" parent="1" vertex="1"><mxGeometry x="1500" y="410" width="30" height="60" as="geometry"/></mxCell><mxCell id="8wCynKdP6kSH53Gw-5Ry-33" value="" style="endArrow=none;html=1;rounded=0;exitX=0;exitY=0;exitDx=360;exitDy=157;exitPerimeter=0;" parent="1" source="8wCynKdP6kSH53Gw-5Ry-21" target="8wCynKdP6kSH53Gw-5Ry-30" edge="1"><mxGeometry width="50" height="50" relative="1" as="geometry"><mxPoint x="1510" y="610" as="sourcePoint"/><mxPoint x="1560" y="560" as="targetPoint"/></mxGeometry></mxCell><mxCell id="8wCynKdP6kSH53Gw-5Ry-35" value="" style="html=1;verticalAlign=bottom;endArrow=open;dashed=1;endSize=8;rounded=0;entryX=0;entryY=0;entryDx=360;entryDy=300;entryPerimeter=0;exitX=0.794;exitY=0.067;exitDx=0;exitDy=0;exitPerimeter=0;" parent="1" target="8wCynKdP6kSH53Gw-5Ry-2" edge="1" source="8wCynKdP6kSH53Gw-5Ry-8"><mxGeometry relative="1" as="geometry"><mxPoint x="830" y="750" as="sourcePoint"/><mxPoint x="600" y="650" as="targetPoint"/></mxGeometry></mxCell><mxCell id="8wCynKdP6kSH53Gw-5Ry-36" value="" style="html=1;verticalAlign=bottom;endArrow=open;dashed=1;endSize=8;rounded=0;entryX=0;entryY=0;entryDx=360;entryDy=157;entryPerimeter=0;" parent="1" target="8wCynKdP6kSH53Gw-5Ry-2" edge="1"><mxGeometry relative="1" as="geometry"><mxPoint x="650" y="417" as="sourcePoint"/><mxPoint x="590" y="700" as="targetPoint"/></mxGeometry></mxCell><mxCell id="HRs413FCXA9Hm5cFwrDk-3" value="Legend&lt;br&gt;&lt;br&gt;&lt;br&gt;&lt;br&gt;&lt;br&gt;&lt;br&gt;" style="shape=folder;fontStyle=1;spacingTop=10;tabWidth=40;tabHeight=14;tabPosition=left;html=1;" parent="1" vertex="1"><mxGeometry x="700" y="990" width="250" height="130" as="geometry"/></mxCell><mxCell id="HRs413FCXA9Hm5cFwrDk-1" value="This Semester" style="ellipse;whiteSpace=wrap;html=1;fillColor=#d5e8d4;strokeColor=#82b366;" parent="1" vertex="1"><mxGeometry x="720" y="1040" width="80" height="60" as="geometry"/></mxCell><mxCell id="HRs413FCXA9Hm5cFwrDk-2" value="Next Semester" style="ellipse;whiteSpace=wrap;html=1;fillColor=#fff2cc;strokeColor=#d6b656;" parent="1" vertex="1"><mxGeometry x="830" y="1040" width="80" height="60" as="geometry"/></mxCell><mxCell id="2" value="not logged in user" style="shape=umlActor;verticalLabelPosition=bottom;verticalAlign=top;html=1;" vertex="1" parent="1"><mxGeometry x="50" y="350" width="30" height="60" as="geometry"/></mxCell><mxCell id="4" value="" style="endArrow=none;html=1;rounded=0;entryX=0;entryY=0.5;entryDx=0;entryDy=0;" edge="1" parent="1" target="8wCynKdP6kSH53Gw-5Ry-4"><mxGeometry width="50" height="50" relative="1" as="geometry"><mxPoint x="90" y="380" as="sourcePoint"/><mxPoint x="199.99999999999932" y="385" as="targetPoint"/></mxGeometry></mxCell><mxCell id="5" value="" style="endArrow=none;html=1;rounded=0;entryX=0;entryY=0.5;entryDx=0;entryDy=0;" edge="1" parent="1" target="8wCynKdP6kSH53Gw-5Ry-6"><mxGeometry width="50" height="50" relative="1" as="geometry"><mxPoint x="90" y="600" as="sourcePoint"/><mxPoint x="209.99999999999932" y="395" as="targetPoint"/><Array as="points"><mxPoint x="330" y="510"/></Array></mxGeometry></mxCell><mxCell id="7" value="" style="endArrow=none;html=1;rounded=0;entryX=0.5;entryY=1;entryDx=0;entryDy=0;" edge="1" parent="1" target="8wCynKdP6kSH53Gw-5Ry-5"><mxGeometry width="50" height="50" relative="1" as="geometry"><mxPoint x="90" y="600" as="sourcePoint"/><mxPoint x="445" y="508" as="targetPoint"/></mxGeometry></mxCell><mxCell id="8" value="" style="html=1;verticalAlign=bottom;endArrow=open;dashed=1;endSize=8;rounded=0;entryX=0.5;entryY=1;entryDx=0;entryDy=0;entryPerimeter=0;exitX=0;exitY=0;exitDx=200;exitDy=14;exitPerimeter=0;" edge="1" parent="1" source="8wCynKdP6kSH53Gw-5Ry-9" target="8wCynKdP6kSH53Gw-5Ry-2"><mxGeometry relative="1" as="geometry"><mxPoint x="440" y="650" as="sourcePoint"/><mxPoint x="450" y="640" as="targetPoint"/><Array as="points"/></mxGeometry></mxCell><mxCell id="10" value="System" style="shape=umlActor;verticalLabelPosition=bottom;verticalAlign=top;html=1;" vertex="1" parent="1"><mxGeometry x="1500" y="750" width="30" height="60" as="geometry"/></mxCell><mxCell id="11" value="List Report" style="ellipse;whiteSpace=wrap;html=1;" vertex="1" parent="1"><mxGeometry x="1090" y="640" width="140" height="70" as="geometry"/></mxCell><mxCell id="12" value="System&amp;nbsp;&lt;br&gt;&lt;br&gt;&lt;br&gt;&lt;br&gt;&lt;br&gt;&lt;br&gt;&lt;br&gt;&lt;br&gt;&lt;br&gt;&lt;br&gt;&lt;br&gt;&lt;br&gt;&lt;br&gt;&lt;br&gt;&lt;br&gt;&lt;br&gt;" style="shape=folder;fontStyle=1;spacingTop=10;tabWidth=40;tabHeight=14;tabPosition=left;html=1;" vertex="1" parent="1"><mxGeometry x="1070" y="820" width="360" height="300" as="geometry"/></mxCell><mxCell id="13" value="Notify User" style="ellipse;whiteSpace=wrap;html=1;" vertex="1" parent="1"><mxGeometry x="1100" y="880" width="140" height="70" as="geometry"/></mxCell><mxCell id="14" value="turn current proof&amp;nbsp;&lt;br&gt;into old proof" style="ellipse;whiteSpace=wrap;html=1;" vertex="1" parent="1"><mxGeometry x="1250" y="880" width="140" height="70" as="geometry"/></mxCell><mxCell id="8wCynKdP6kSH53Gw-5Ry-12" value="Judge" style="ellipse;whiteSpace=wrap;html=1;fillColor=#d5e8d4;strokeColor=#82b366;" parent="1" vertex="1"><mxGeometry x="830" y="460" width="140" height="70" as="geometry"/></mxCell><mxCell id="15" value="" style="endArrow=none;html=1;rounded=0;entryX=0;entryY=0;entryDx=0;entryDy=300;entryPerimeter=0;" edge="1" parent="1" target="8wCynKdP6kSH53Gw-5Ry-7"><mxGeometry width="50" height="50" relative="1" as="geometry"><mxPoint x="90" y="600" as="sourcePoint"/><mxPoint x="829.9999999999998" y="570" as="targetPoint"/></mxGeometry></mxCell><mxCell id="16" value="" style="endArrow=none;html=1;rounded=0;exitX=0;exitY=0;exitDx=360;exitDy=14;exitPerimeter=0;entryX=0;entryY=1;entryDx=0;entryDy=0;entryPerimeter=0;" edge="1" parent="1" source="12" target="10"><mxGeometry width="50" height="50" relative="1" as="geometry"><mxPoint x="1440" y="616.9999999999998" as="sourcePoint"/><mxPoint x="1510" y="479.47058823529403" as="targetPoint"/></mxGeometry></mxCell></root></mxGraphModel></diagram></mxfile>